<svg xmlns="http://www.w3.org/2000/svg" xmlns:xlink="http://www.w3.org/1999/xlink" id="Layer_1" x="0" y="0" version="1.1" viewBox="0 0 225.5 225.5" xml:space="preserve" style="enable-background:new 0 0 225.5 225.5"><style type="text/css">.st0{fill:#fff}.st1{fill:#6aa9c7}</style><g id="Layer_2_00000074406533067636851750000000579908969072383129_"><g id="Layer_1-2"><path fill="none" d="M225.5,225.5H0V0h225.5V225.5z M218.5,217.9c-0.1-1.4-0.1-2.8,0-4.2c0.3-2.1-0.6-3.3-2.2-4.6 c-7.4-5.8-16.4-9.1-25.8-9.5c-10.7-0.6-21.3-1.2-32-1.9c-5.5-0.3-9.8-3.9-10.2-9.1c-0.4-4.9-0.4-9.8,0.1-14.7 c0.9-8.4,5.8-14.2,12.8-18.7c30.5-19.9,44.2-58.5,32-92.8c-11.6-32.7-35.3-51.3-69.8-55c-21.8-2.3-41,4.4-56.6,20.1 C55.7,38.6,49.1,52.3,45.2,67.4c-0.4,1.5-1,3-1.8,4.4c-7.3,12.3-14.6,24.5-22,36.8c-2.7,4.6-1.1,9.2,3.9,10.9 c2.9,1,5.9,1.7,8.9,2.5c7.5,2,10.2,5.1,11,12.8c1.1,11.8,5.8,23.1,13.4,32.2c4.9,5.9,10.3,11.2,19.2,10.2c0,3.4,0,6.5,0,9.6 c0,6.3-4.2,10.6-10.5,11L35,199.6c-9.6,0.4-18.8,4-26.1,10.2c-0.6,0.5-1.3,1.2-1.4,1.8c-0.2,2.1-0.1,4.2-0.1,6.3H218.5z M7.6,7.1 v6.8h6.7V7.1H7.6z M63.6,17.5v-6.8h-6.7v6.8H63.6z M194,21.1v6.8h6.7v-6.8H194z M35.4,42.1v-6.8h-6.7v6.8H35.4z M211.6,59.8v6.8 h6.7v-6.8H211.6z M218.4,109.2h-6.8v6.7h6.8V109.2z"/><path d="M218.5,217.9H7.4c0-2.1-0.1-4.2,0.1-6.3c0-0.6,0.8-1.4,1.4-1.8c7.4-6.2,16.6-9.7,26.1-10.2l32.3-1.9 c6.3-0.4,10.4-4.7,10.5-11c0-3.1,0-6.3,0-9.6c-8.8,1-14.2-4.2-19.2-10.2c-7.6-9.1-12.3-20.3-13.4-32.2c-0.8-7.7-3.5-10.8-11-12.8 c-3-0.8-6-1.5-8.9-2.5c-5-1.7-6.6-6.4-3.9-10.9c7.3-12.3,14.7-24.5,22-36.8c0.8-1.4,1.4-2.9,1.8-4.4c3.9-15.1,10.5-28.8,21.6-39.9 c15.7-15.6,34.8-22.4,56.6-20c34.6,3.7,58.2,22.3,69.8,55c12.1,34.3-1.5,72.9-32,92.8c-6.9,4.5-11.9,10.3-12.8,18.7 c-0.5,4.9-0.5,9.8-0.1,14.7c0.4,5.2,4.7,8.8,10.2,9.1c10.7,0.7,21.3,1.3,32,1.9c9.4,0.4,18.4,3.8,25.8,9.5 c1.6,1.2,2.5,2.5,2.2,4.6C218.4,215.1,218.4,216.5,218.5,217.9z M103.1,41.3C98.1,42.8,93,44.2,88,45.7c-2.8,0.8-3.7,2.5-2.7,5.2 C89.8,63.4,94.3,76,99,88.6c0.5,1.2,1.4,2.2,2.6,2.7c11.4,4.7,22.8,9.2,34.2,13.7c2.4,1,3.9,0.4,5.1-1.9c2.4-4.4,4.7-8.8,7-13.2 c0.4-0.7,0.8-1.3,1.2-2c3.8,1,7.5,1.9,11,3c2,0.8,4.2,0.1,5.4-1.6c5.4-6.6,10.9-13.1,16.3-19.6c2-2.4,2-3.6,0-6 c-4.2-5.2-8.3-10.4-12.5-15.6c-2.9-3.6-5.3-3.4-7.5,0.7c-5.2,9.7-10.4,19.4-15.5,29.1c-0.7,1.4-1.4,1.7-2.9,1.2 c-3.5-1.2-7.1-2.2-10.8-2.9c-5.2-0.8-8.2-3.4-10.1-8.2c-2.1-5.2-4.9-10.1-7.4-15.1l0.4-0.4c0.7,0.4,1.4,0.9,2,1.3 c6.8,6.1,13.6,12.2,20.4,18.4c1.2,1.1,2.5,1.9,4.1,1.3s2.2-1.9,2.5-3.6c1-6.4,2.1-12.9,3.2-19.3c0.6-3.5-0.8-5.1-4.4-5.1 c-7.6,0-15.2,0-22.9,0c-0.9-0.1-1.8-0.3-2.7-0.6l0.1-0.6c6.5-1.9,12.9-3.7,19.4-5.5c0.5-0.1,1,0,1.5,0.1 c5.3,0.8,10.6,1.5,15.9,2.3c2.2,0.3,4.4,0.6,6.8,0.9l1-6.8c-0.7-0.1-1.1-0.2-1.6-0.3c-6.7-1-13.5-1.8-20.2-2.9 c-2.5-0.4-5-0.2-7.3,0.6c-6.7,2-13.5,3.9-20.2,5.9c-1.3,0.4-2.4,0.4-3.1-0.8c-1-1.7-1.9-3.5-2.7-5.4c-1.8-4.5-1-4.2,2.9-4.2 c4.3,0,8.6,0,12.9,0V21c-5.8,0-11.5,0-17.1,0c-2.3,0-7,4.4-7.3,6.6c-0.1,0.5,0,1,0.1,1.5C100.4,33.1,101.7,37.1,103.1,41.3z M171.1,104.5c-4.9-2-9.5-3.8-14.1-5.7c-1.7-0.9-3.8-0.3-4.8,1.3c-0.6,0.9-1.3,1.8-2,2.6l-8.3,11.1l5.6,4.2l8.9-11.8 c0.8,0.3,1.5,0.5,2.1,0.8c4.1,1.7,8.3,3.3,12.4,5c1.9,0.8,3.8,0.6,4.8-1.2c2.5-4.7,4.8-9.5,7.3-14.3l-6.3-3.1L171.1,104.5z M62.9,71.7L57,75c4.6,11.8,20.7,19.9,34.2,17.3v-6.9C79.1,86.5,69.1,83.1,62.9,71.7z M82.9,35.7c-3.7,2.5-7.3,4.7-10.6,7.2 c-0.9,0.9-1.4,2.1-1.3,3.4c0.9,3.7,2.2,7.2,3.5,11l6.6-2.2c-0.4-1.8-1-3.5-1.7-5.2c-1.1-2.2-0.4-3.4,1.6-4.5s3.8-2.5,5.8-3.9 L82.9,35.7z" class="st1"/><path d="M7.6,7.1h6.7v6.8H7.6V7.1z" class="st1"/><path d="M63.5,17.5h-6.7v-6.8h6.7V17.5z" class="st1"/><path d="M194,21.1h6.7v6.8H194V21.1z" class="st1"/><path d="M35.4,42.1h-6.7v-6.8h6.7V42.1z" class="st1"/><path d="M211.6,59.8h6.7v6.8h-6.7V59.8z" class="st1"/><path d="M218.4,109.2v6.7h-6.8v-6.7H218.4z" class="st1"/><path d="M103.1,41.3c-1.4-4.2-2.8-8.2-4.1-12.1c-0.1-0.5-0.2-1-0.1-1.5c0.3-2.2,5-6.6,7.3-6.6c5.6,0,11.3,0,17.1,0v7 c-4.3,0-8.6,0-12.9,0c-3.9,0-4.7-0.2-2.9,4.2c0.8,1.9,1.6,3.7,2.7,5.4c0.7,1.2,1.8,1.1,3.1,0.8c6.7-2,13.5-3.9,20.2-5.9 c2.4-0.8,4.9-1,7.3-0.6c6.7,1.1,13.5,2,20.2,2.9c0.4,0.1,0.9,0.2,1.6,0.3l-1,6.8c-2.4-0.3-4.6-0.6-6.8-0.9 c-5.3-0.8-10.6-1.5-15.9-2.3c-0.5-0.1-1-0.2-1.5-0.1c-6.5,1.8-13,3.7-19.4,5.5L118,45c0.9,0.3,1.8,0.6,2.7,0.7 c7.6,0,15.2,0,22.9,0c3.6,0,5,1.6,4.4,5.1c-1.1,6.4-2.2,12.8-3.2,19.3c-0.3,1.7-0.9,3-2.5,3.6s-3-0.2-4.1-1.3 c-6.8-6.1-13.6-12.3-20.4-18.4c-0.6-0.5-1.3-0.9-2-1.3l-0.4,0.4c2.5,5,5.3,9.9,7.4,15.1c1.9,4.8,4.9,7.5,10.1,8.2 c3.7,0.7,7.3,1.7,10.8,2.9c1.5,0.5,2.2,0.1,2.9-1.2c5.1-9.7,10.3-19.4,15.5-29.1c2.2-4.1,4.6-4.3,7.5-0.7 c4.2,5.2,8.3,10.4,12.5,15.6c1.9,2.4,2,3.6,0,6c-5.4,6.6-10.9,13-16.3,19.6c-1.2,1.7-3.4,2.4-5.4,1.6c-3.6-1.1-7.2-2-11-3 c-0.4,0.6-0.8,1.3-1.2,2c-2.4,4.4-4.7,8.8-7,13.2c-1.2,2.3-2.7,2.8-5.1,1.9c-11.4-4.5-22.9-9.1-34.2-13.7 c-1.2-0.5-2.2-1.5-2.7-2.8C94.3,76,89.8,63.4,85.2,50.8c-1-2.7,0-4.4,2.7-5.2C93,44.2,98.1,42.8,103.1,41.3z M142.1,86 c-6.1-1.7-11.9-3.3-17.7-4.8c-2.2-0.5-4-2-4.8-4c-4-8.2-8.2-16.4-12.2-24.6c-0.7-1.5-1.2-3.1-1.8-4.8L93,51.5 c0.3,0.8,0.5,1.5,0.7,2.2c3.6,9.8,7.2,19.5,10.6,29.3c0.5,1.4,1.6,2.6,3,3.1c8.5,3.3,17,6.8,25.5,10.2c1,0.4,2,0.8,3.1,1.2 C138,93.6,140,90,142.1,86z M152.5,81.5c2.4,0.7,4.7,1.2,6.9,1.9c1,0.4,2.2,0,2.8-0.9c4-4.9,8-9.7,12.1-14.5 c0.4-0.4,0.6-0.9,1-1.4l-8.8-11C161.6,64.3,157.1,72.8,152.5,81.5L152.5,81.5z M126.9,52.8l11.8,10.6c0.6-3.8,1.2-7.1,1.7-10.6 H126.9z" class="st0"/><path d="M171.1,104.5l5.6-11.1l6.4,3.1c-2.4,4.9-4.7,9.7-7.3,14.3c-1,1.9-2.9,2-4.8,1.2c-4.1-1.7-8.3-3.3-12.4-5 c-0.7-0.3-1.4-0.5-2.1-0.8l-8.9,11.8l-5.6-4.2l8.3-11.1c0.6-0.9,1.3-1.8,2-2.6c1-1.6,3.1-2.2,4.8-1.3 C161.5,100.7,166.1,102.5,171.1,104.5z" class="st0"/><path d="M62.9,71.7c6.2,11.4,16.1,14.8,28.3,13.7v6.9C77.7,94.9,61.6,86.8,57,75L62.9,71.7z" class="st0"/><path d="M82.9,35.7l3.9,5.8c-2,1.3-3.8,2.7-5.8,3.9s-2.7,2.3-1.6,4.5c0.7,1.7,1.3,3.4,1.7,5.2l-6.6,2.2 c-1.2-3.8-2.6-7.3-3.5-11c-0.1-1.3,0.4-2.5,1.3-3.3C75.6,40.4,79.2,38.2,82.9,35.7z" class="st0"/><path d="M142.1,86c-2.1,4-4.1,7.6-6.1,11.5c-1.1-0.4-2.1-0.8-3.1-1.2c-8.5-3.4-17-6.8-25.5-10.2 c-1.4-0.5-2.5-1.6-3-3.1c-3.5-9.8-7.1-19.5-10.6-29.3c-0.2-0.7-0.4-1.4-0.7-2.2l12.4-3.6c0.7,1.7,1.1,3.3,1.8,4.8 c4.1,8.2,8.2,16.4,12.2,24.6c0.9,2,2.7,3.5,4.8,4C130.2,82.7,135.9,84.4,142.1,86z" class="st1"/><path d="M152.5,81.5c4.6-8.7,9.2-17.2,13.9-26l8.8,11c-0.3,0.5-0.6,1-1,1.4c-4,4.8-8.1,9.7-12.1,14.5 c-0.5,1-1.7,1.4-2.8,0.9C157.2,82.8,154.9,82.2,152.5,81.5z" class="st1"/><path d="M126.9,52.8h13.5c-0.6,3.5-1.1,6.8-1.7,10.6L126.9,52.8z" class="st1"/></g></g></svg>