<svg width="726" height="566" viewBox="0 0 726 566" fill="none" xmlns="http://www.w3.org/2000/svg">
<path fill-rule="evenodd" clip-rule="evenodd" d="M449.884 39.0257C449.884 39.0257 359.932 -37.4698 271.882 25.4232C183.832 88.3163 233.122 108.647 129.714 158.084C26.1603 207.374 6.41479 293.67 4.36711 338.28C2.31943 382.89 32.8884 466.406 76.4748 492.733C119.915 519.061 170.083 544.364 261.059 532.078C351.888 519.792 471.677 480.74 541.737 484.25C611.944 487.907 638.71 493.026 676.738 463.042C805.888 360.951 650.118 216.881 544.224 171.101C476.065 141.556 505.025 90.8028 449.884 39.0257Z" fill="#FFE1D7"/>
<path fill-rule="evenodd" clip-rule="evenodd" d="M525.075 160.717C497.432 141.556 494.36 116.545 483.39 89.0479C470.519 90.8031 463.645 100.456 463.645 100.456C463.645 100.456 458.672 94.8984 449.311 95.6297C440.096 96.5073 435.123 108.501 435.123 108.501C435.123 108.501 422.691 105.283 413.33 114.205C412.599 115.229 411.868 116.253 411.283 117.423C406.31 128.246 408.504 135.56 408.504 135.56C408.504 135.56 395.194 135.56 382.761 143.019C370.475 150.478 367.257 160.717 367.257 160.717H525.075Z" fill="white"/>
<path fill-rule="evenodd" clip-rule="evenodd" d="M24.6977 258.274C9.9251 288.696 5.39095 317.803 4.36711 338.28C2.31943 382.89 32.8884 466.406 76.4748 492.733C119.915 519.061 170.083 544.364 261.059 532.078C351.888 519.792 471.677 480.74 541.737 484.25C611.944 487.907 638.71 493.026 676.738 463.042C746.798 407.754 733.049 340.181 689.024 282.407C658.602 263.247 620.427 239.991 609.457 238.382C590.589 235.457 543.2 279.921 520.09 283.285C496.835 286.649 295.138 158.084 271.882 152.233C254.769 147.991 103.826 219.807 24.6977 258.274Z" fill="#EDB9A9"/>
<path fill-rule="evenodd" clip-rule="evenodd" d="M2.47527 339.012C-0.88878 349.835 0.720113 381.721 5.69306 403.806C7.59447 411.997 10.9585 422.235 13.7375 428.525C14.3226 430.134 15.0539 431.596 15.0539 431.889C15.0539 432.766 22.0745 446.076 24.9998 450.61C34.3606 465.237 48.1093 479.424 70.195 496.537C80.4335 504.581 92.427 511.163 106.322 516.136C109.101 517.16 112.026 518.33 112.904 518.623C115.683 519.793 121.533 519.5 122.703 518.038C124.751 515.697 126.945 509.993 127.238 505.898C127.384 502.68 127.238 501.364 126.068 499.023C124.02 494.928 121.972 493.758 115.829 493.465L110.71 493.027L109.686 486.591C107.931 476.206 105.883 472.842 98.7163 469.04C94.4747 466.699 94.4747 466.846 96.3761 458.655C98.4238 449.294 98.8626 446.808 99.3014 440.957C99.8864 431.596 96.5224 421.504 91.4032 417.116C87.0153 413.167 77.5082 409.657 71.0726 409.657C64.1983 409.657 62.0043 406.439 62.0043 396.786C62.0043 391.666 61.7118 389.911 60.2492 386.694C58.494 382.598 54.9837 378.503 51.1809 376.163C48.6944 374.554 42.4051 372.213 40.7962 372.213C37.5784 372.213 36.4083 370.897 35.5307 366.363C35.0919 364.023 34.7994 361.39 34.7994 360.659C34.7994 359.927 34.5069 358.757 34.0681 358.026C33.9218 357.441 33.0442 355.686 32.3129 354.077C29.3877 348.226 20.6119 341.498 12.5674 339.304C7.887 338.134 2.7678 337.842 2.47527 339.012Z" fill="black"/>
<path fill-rule="evenodd" clip-rule="evenodd" d="M698.386 401.318C693.852 402.196 688.44 406.584 684.199 412.58C683.467 413.604 682.736 414.482 682.443 414.482C682.151 414.482 679.957 412.727 677.617 410.679C671.62 405.267 670.011 404.682 663.576 404.682C658.018 404.682 656.555 404.975 649.827 408.046C643.099 411.118 636.517 419.016 633.445 427.646C632.129 431.302 630.666 441.833 630.666 447.245C630.666 458.068 626.279 462.164 618.234 458.946C616.625 458.215 613.7 457.776 611.652 457.63C608.288 457.63 607.849 457.922 605.509 460.409C604.193 462.017 602.438 463.919 601.853 464.65C600.975 465.82 599.951 466.113 597.611 466.113C593.808 466.113 591.468 467.575 589.713 470.939C588.25 474.011 587.958 481.032 589.274 483.372C589.567 484.249 590.005 485.712 589.859 486.736C589.567 489.954 590.59 490.1 604.485 489.807C616.333 489.369 623.792 488.784 628.911 487.613C635.347 486.297 639.881 484.981 640.905 484.542C641.636 484.103 642.66 483.811 643.245 483.811C643.83 483.811 644.854 483.664 645.439 483.226C646.024 482.933 647.925 482.055 649.681 481.47C664.307 475.912 679.664 466.99 691.366 457.483C701.165 449.585 709.356 438.908 713.305 429.108C714.329 426.329 715.499 423.696 715.791 422.965C716.669 420.479 717.693 417.553 718.863 413.458C719.448 411.118 720.179 408.339 720.618 407.169C722.227 401.611 720.911 400.733 708.917 400.879C703.944 400.879 699.117 401.026 698.386 401.318Z" fill="black"/>
<path fill-rule="evenodd" clip-rule="evenodd" d="M243.37 559.283C243.37 559.283 251.707 566.45 271.453 563.086C291.198 559.722 309.481 554.895 320.159 552.409C330.689 549.922 356.724 544.364 356.724 544.364L239.129 523.449C239.129 523.449 234.302 548.898 243.37 559.283Z" fill="#EDB9A9"/>
<path fill-rule="evenodd" clip-rule="evenodd" d="M416.539 517.012C416.539 517.012 437.6 515.257 446.815 512.186C455.883 508.968 465.244 508.236 477.238 511.601C489.231 514.965 510.878 516.427 512.633 520.084C514.388 523.887 514.096 528.128 510.586 529.445C507.221 530.907 507.66 537.782 507.66 537.782C507.66 537.782 506.49 554.163 492.01 558.99C477.53 563.816 445.791 558.112 445.791 558.112L410.396 550.36C410.396 550.36 418.147 520.961 416.539 517.012Z" fill="#EDB9A9"/>
<path fill-rule="evenodd" clip-rule="evenodd" d="M474.897 511.016C475.628 511.163 476.506 511.309 477.237 511.601C489.231 514.965 510.878 516.428 512.633 520.085C514.388 523.887 514.096 528.129 510.585 529.445C507.221 530.908 507.66 537.782 507.66 537.782C507.66 537.782 506.49 554.164 492.01 558.991C487.768 560.307 482.064 560.892 476.214 560.892C474.312 551.531 480.601 541.731 475.19 532.078C471.094 524.472 473.288 515.404 474.897 511.016Z" fill="#FFE1D7"/>
<path fill-rule="evenodd" clip-rule="evenodd" d="M233.42 448.415L350.869 453.242C350.869 453.242 405.571 453.242 422.83 452.949C440.089 452.657 442.722 449 442.722 449C442.722 449 497.278 442.857 500.935 443.588C504.591 444.32 534.429 441.833 545.252 446.953C556.076 452.072 563.828 458.654 564.413 470.647C565.144 482.641 558.124 492.294 550.225 499.9C542.327 507.505 522.582 514.819 522.582 514.819C522.582 514.819 508.979 518.036 504.152 517.744C499.326 517.598 475.192 509.846 468.611 509.846C461.882 509.846 438.627 515.404 435.701 515.111C432.776 514.819 417.272 516.72 417.272 516.72C417.272 516.72 411.714 553.578 407.765 555.041C403.816 556.503 384.802 552.116 384.802 552.116C384.802 552.116 316.205 539.537 306.259 539.391C296.166 539.244 223.328 524.911 223.328 524.911C223.328 524.911 193.051 517.89 180.326 502.24C167.455 486.444 172.135 470.793 177.986 462.018C183.837 453.388 202.119 443.296 233.42 448.415Z" fill="#FACA50"/>
<path fill-rule="evenodd" clip-rule="evenodd" d="M522.292 443.589C531.068 443.881 540.136 444.612 545.255 446.953C556.079 452.072 563.831 458.654 564.416 470.647C565.147 482.641 558.126 492.294 550.228 499.9C542.33 507.506 522.585 514.819 522.585 514.819C522.585 514.819 508.982 518.037 504.155 517.744C501.523 517.598 493.771 515.55 486.019 513.502C495.672 510.577 509.421 506.335 523.608 501.948C549.936 493.757 550.813 484.25 548.619 478.253C546.425 472.11 542.33 452.657 529.605 449.732C516.88 446.953 513.809 447.83 513.809 447.83C513.809 447.83 517.027 445.636 522.292 443.589Z" fill="#FFE1D7"/>
<path fill-rule="evenodd" clip-rule="evenodd" d="M233.42 448.415L350.869 453.242C350.869 453.242 405.571 453.242 422.83 452.949C440.089 452.657 442.722 449 442.722 449C442.722 449 497.278 442.857 500.935 443.588C503.129 444.027 514.245 443.296 525.361 443.735C522.582 445.051 518.486 446.806 514.976 447.538C508.833 448.854 470.658 463.188 465.685 465.528C460.712 467.868 420.49 484.688 420.49 484.688C420.49 484.688 426.341 489.954 433.069 496.097C439.797 502.24 443.307 503.117 457.933 509.699C458.811 509.992 459.835 510.431 461.005 510.723C451.498 512.332 437.895 515.257 435.701 515.111C433.361 514.965 422.538 516.135 418.735 516.574C417.711 515.696 416.98 515.111 416.833 514.672C415.078 511.016 401.476 508.237 400.744 507.798C400.159 507.505 389.043 500.338 391.969 497.121C393.87 495.073 404.694 490.685 412.446 487.76C402.061 491.416 384.071 497.267 374.563 497.852C360.522 498.583 313.133 482.787 313.133 482.787C313.133 482.787 294.704 475.474 281.686 472.695C268.669 469.916 244.389 465.089 239.416 465.089C234.59 465.089 226.253 460.262 219.963 453.973C213.674 447.684 204.752 447.976 204.46 447.976C212.504 446.66 222.011 446.66 233.42 448.415ZM505.908 517.744C505.323 517.744 504.591 517.744 504.152 517.744C503.421 517.744 502.397 517.598 500.935 517.305C502.69 517.451 504.299 517.598 505.908 517.744ZM414.201 534.125C412.299 543.925 409.813 554.31 407.765 555.041C403.816 556.503 384.802 552.116 384.802 552.116C384.802 552.116 316.204 539.537 306.259 539.391C296.166 539.244 223.328 524.911 223.328 524.911C223.328 524.911 193.051 517.89 180.326 502.24C167.455 486.444 172.135 470.793 177.986 462.018C180.619 458.068 185.738 453.973 193.49 450.902C190.126 456.752 186.03 468.014 198.609 476.498C216.453 488.491 235.467 487.321 255.067 495.951C274.666 504.726 297.629 511.454 306.844 512.917C316.058 514.38 345.896 523.009 378.951 528.86C392.554 531.346 404.694 533.101 414.201 534.125Z" fill="#BD9941"/>
<path fill-rule="evenodd" clip-rule="evenodd" d="M93.587 357.586C93.587 357.586 90.9542 359.78 91.9781 362.851C93.1482 365.923 94.3183 369.579 97.3898 373.967C100.608 378.209 104.41 383.767 104.41 383.767C104.41 383.767 96.366 376.454 93.587 373.528C90.6617 370.603 87.0051 370.749 87.1514 373.675C87.2977 376.746 96.6585 387.277 97.8286 387.862C98.8525 388.447 96.2197 389.91 97.2436 392.981C98.2674 396.199 110.261 409.509 118.598 411.264C126.935 413.019 139.367 413.312 144.925 415.213C150.337 417.115 153.409 418.431 153.409 418.431C153.409 418.431 155.456 393.42 154.871 393.128C154.286 392.689 149.167 392.396 149.459 388.886C149.606 385.376 152.97 377.624 152.97 375.869C152.97 374.113 151.068 367.678 146.242 364.168C141.415 360.657 139.66 361.389 139.66 364.606C139.806 367.97 142.146 373.236 139.221 378.794C136.442 384.498 131.908 385.668 128.983 383.913C126.057 382.158 122.84 377.624 124.302 372.505C125.619 367.532 132.2 364.021 134.687 361.535C137.027 358.902 134.394 356.269 130.299 357.732C126.35 359.195 117.574 362.266 117.428 367.239C117.282 372.066 116.55 378.355 115.819 379.086C114.941 379.964 109.237 376.6 104.996 371.188C100.9 365.776 93.587 357.586 93.587 357.586Z" fill="#EDB9A9"/>
<path fill-rule="evenodd" clip-rule="evenodd" d="M93.587 357.586C93.587 357.586 90.9542 359.78 91.9781 362.851C93.1482 365.923 94.3183 369.579 97.3898 373.967C100.608 378.209 104.41 383.767 104.41 383.767C104.41 383.767 96.366 376.454 93.587 373.528C90.6617 370.603 87.0051 370.749 87.1514 373.675C87.2977 376.746 96.6585 387.277 97.8286 387.862C98.8525 388.447 96.2197 389.91 97.2436 392.981C97.6823 394.151 99.145 396.199 101.485 398.686C108.36 402.342 117.867 406.438 126.057 406.438C132.2 406.438 136.442 405.852 139.66 405.56C138.782 398.978 140.537 397.223 147.851 390.349C148.436 389.764 148.874 389.178 149.459 388.593C149.752 385.083 152.97 377.624 152.97 375.869C152.97 374.113 151.068 367.678 146.242 364.168C141.415 360.657 139.66 361.389 139.66 364.606C139.806 367.97 142.146 373.236 139.221 378.794C136.442 384.498 131.908 385.668 128.983 383.913C126.057 382.158 122.84 377.624 124.302 372.505C125.619 367.532 132.2 364.021 134.687 361.535C137.027 358.902 134.394 356.269 130.299 357.732C126.35 359.195 117.574 362.266 117.428 367.239C117.282 372.066 116.55 378.355 115.819 379.086C114.941 379.964 109.237 376.6 104.995 371.188C100.9 365.776 93.587 357.586 93.587 357.586Z" fill="#FFE1D7"/>
<path fill-rule="evenodd" clip-rule="evenodd" d="M586.808 387.862C586.37 387.862 590.757 384.791 590.757 382.304C590.757 379.818 586.077 373.675 587.832 367.824C589.587 361.974 595.73 354.661 598.656 354.807C601.435 354.953 601.581 355.977 600.265 361.389C599.094 366.801 599.094 374.406 603.336 376.6C607.431 378.94 613.428 377.624 614.891 373.236C616.5 368.848 614.745 364.168 612.258 361.535C609.772 358.756 602.605 354.953 603.629 353.929C604.506 352.759 607.431 350.127 613.721 353.198C620.156 356.416 623.228 361.243 624.105 365.484C624.837 369.58 624.983 374.699 624.983 374.699C624.983 374.699 634.051 368.409 638.585 361.681C643.12 354.953 647.508 350.273 648.531 352.613C649.555 355.1 646.191 362.12 643.705 366.654C641.364 371.188 634.929 377.478 634.929 377.478C634.929 377.478 640.926 374.26 645.021 369.433C649.116 364.607 652.334 365.338 652.627 367.824C652.919 370.311 641.657 382.304 641.657 382.304C641.657 382.304 645.314 383.621 642.827 388.594C640.341 393.567 626.153 403.513 619.132 405.122C612.112 406.877 600.85 406.145 595.877 408.632C590.904 410.972 587.393 412.435 587.393 412.435L586.808 387.862Z" fill="#EDB9A9"/>
<path fill-rule="evenodd" clip-rule="evenodd" d="M590.753 382.743C590.753 382.597 590.753 382.451 590.753 382.304C590.753 379.818 586.073 373.675 587.828 367.824C589.583 361.974 595.726 354.661 598.652 354.807C601.431 354.953 601.577 355.977 600.26 361.389C599.09 366.801 599.09 374.406 603.332 376.6C607.427 378.94 613.424 377.624 614.887 373.236C616.496 368.848 614.741 364.168 612.254 361.535C609.768 358.756 602.601 354.953 603.625 353.929C604.502 352.759 607.427 350.127 613.717 353.198C620.152 356.416 623.224 361.243 624.101 365.484C624.833 369.58 624.979 374.699 624.979 374.699C624.979 374.699 634.047 368.409 638.581 361.681C643.116 354.953 647.503 350.273 648.527 352.613C649.551 355.1 646.187 362.12 643.701 366.654C641.36 371.188 634.925 377.478 634.925 377.478C634.925 377.478 640.922 374.26 645.017 369.433C649.112 364.607 652.33 365.338 652.623 367.824C652.915 370.311 641.653 382.304 641.653 382.304C641.653 382.304 645.309 383.621 642.823 388.594C642.677 388.74 642.677 389.033 642.53 389.179C637.265 392.543 629.952 396.346 621.176 398.101C612.108 399.856 606.111 401.026 602.601 401.611C600.407 399.125 599.822 395.907 597.481 393.859C591.777 389.179 593.094 383.475 592.216 383.328C592.07 383.328 591.485 383.036 590.753 382.743Z" fill="#FFE1D7"/>
<path fill-rule="evenodd" clip-rule="evenodd" d="M314.449 177.536C314.449 177.536 316.789 208.69 329.66 214.102C342.532 219.367 348.967 232.238 348.967 232.238C348.967 232.238 349.26 245.402 344.433 249.205C339.753 253.154 322.055 260.906 322.055 260.906C322.055 260.906 302.748 286.356 323.517 322.336C344.433 358.463 402.646 333.452 414.785 314.146C426.779 294.839 420.197 260.175 420.197 260.175C420.197 260.175 400.305 252.715 398.697 249.936C396.941 247.157 414.932 198.744 414.932 198.744C414.932 198.744 422.976 161.447 385.533 147.698C348.09 134.096 328.052 151.062 314.449 177.536Z" fill="#EDB9A9"/>
<path fill-rule="evenodd" clip-rule="evenodd" d="M337.127 253.739C330.399 257.25 322.062 260.906 322.062 260.906C322.062 260.906 305.534 282.699 319.575 314.438C328.936 321.166 341.515 319.704 341.515 319.704C341.515 319.704 332.3 305.663 331.715 287.234C331.13 268.951 340.637 255.641 340.637 255.641L337.127 253.739Z" fill="#FFE1D7"/>
<path fill-rule="evenodd" clip-rule="evenodd" d="M314.891 181.631C315.915 190.26 319.718 210.006 329.664 214.101C334.198 215.856 337.854 218.781 340.926 221.56C339.317 216.441 337.269 209.567 335.953 206.788C333.759 201.961 332.004 190.114 330.541 185.58C329.079 180.899 323.082 173.001 323.082 173.001C321.473 170.076 317.816 175.78 314.891 181.631ZM347.361 229.605C348.385 231.067 348.97 232.238 348.97 232.238C349.994 231.652 360.086 235.602 362.134 236.625C364.182 237.649 370.325 243.354 371.787 246.571C373.25 249.789 382.464 255.347 387.73 257.395C392.995 259.442 397.968 265.147 398.407 286.062C398.992 306.978 384.22 324.383 384.22 324.383L406.305 312.828L421.809 287.671C422.102 282.991 422.102 278.31 421.809 274.215L415.812 258.419C409.962 256.078 399.87 251.837 398.7 249.935C396.945 247.156 414.935 198.743 414.935 198.743C414.935 198.743 414.935 198.305 415.081 197.866L415.374 185.287C415.081 182.069 414.496 178.413 413.18 174.756L398.261 166.419C398.261 166.419 387.437 170.222 389.046 180.899C390.655 191.576 380.563 196.403 381.733 195.818C383.05 195.233 389.339 197.573 383.05 201.376C376.76 205.179 370.471 201.376 370.471 201.376C370.471 201.376 368.131 205.91 370.178 206.056C372.372 206.203 376.906 210.444 373.981 215.417C370.91 220.39 365.644 219.074 367.692 219.659C369.886 220.244 373.542 223.754 373.25 227.703C372.226 239.112 356.576 233.408 347.361 229.605Z" fill="#FFE1D7"/>
<path fill-rule="evenodd" clip-rule="evenodd" d="M385.109 147.553C382.476 146.675 379.99 145.798 377.503 145.213L332.893 163.642L333.039 173.149C333.039 173.149 341.084 183.095 345.91 185.143C350.737 187.044 356.588 182.949 359.22 183.095C361.999 183.387 363.316 182.949 363.608 186.313C363.901 189.677 362.877 202.694 363.755 204.449C364.778 206.058 372.823 206.497 373.554 205.619C374.432 204.742 373.262 202.84 371.799 202.255C370.19 201.524 368.874 200.5 368.728 195.82C368.435 191.286 368.289 183.826 369.459 183.387C370.629 182.949 375.602 182.802 376.187 183.387C376.918 183.973 383.939 187.483 388.473 182.51C393.153 177.537 399.15 174.319 399.15 174.319L385.109 147.553ZM339.767 192.31C339.767 192.31 348.982 193.333 354.101 192.602C359.074 191.871 352.785 198.891 347.227 198.599C341.523 198.306 339.767 192.31 339.767 192.31ZM376.772 192.163C376.772 192.163 387.01 193.333 390.813 191.139C394.616 188.799 389.936 197.868 382.33 197.868C374.724 197.868 372.969 192.748 373.7 192.31C374.432 191.724 376.772 192.163 376.772 192.163Z" fill="#FFE1D7"/>
<path fill-rule="evenodd" clip-rule="evenodd" d="M329.809 258.858C329.809 258.858 321.179 277.434 321.911 287.233C322.642 297.033 328.346 316.925 345.605 324.238C362.718 331.551 377.929 326.432 384.219 324.384C390.362 322.336 405.134 312.098 411.131 296.448C417.128 280.944 414.203 267.634 413.179 264.416C412.155 261.052 410.4 256.957 410.4 256.957C410.4 256.957 439.799 263.685 450.037 273.192C460.129 282.699 468.32 307.71 470.075 317.656C471.83 327.602 487.773 393.128 487.773 393.128C487.773 393.128 526.533 390.788 548.326 390.349C569.973 389.91 585.33 385.961 586.062 386.546C586.793 387.277 587.378 412.435 587.378 412.435L570.265 417.993L524.339 433.058C524.339 433.058 493.038 443.15 480.167 441.833C467.15 440.371 456.619 423.112 455.595 420.918C454.425 418.724 436.435 368.994 436.435 368.994C436.435 368.994 426.342 377.77 424.441 387.862C422.686 397.954 421.808 409.948 426.927 422.819C432.047 435.69 441.7 449.732 441.7 449.732C441.7 449.732 402.648 454.412 367.398 454.851C332.149 455.29 299.825 449.732 299.825 449.732C299.825 449.732 311.965 423.843 311.965 411.264C311.965 398.54 303.628 379.964 303.628 379.964C303.628 379.964 296.461 396.784 294.267 407.169C292.073 417.7 278.471 444.905 263.698 446.221C249.072 447.684 209.142 436.275 209.142 436.275L152.684 418.139L154.293 392.104L162.191 393.274C162.191 393.274 231.228 397.369 240.003 398.393C248.633 399.563 252.436 399.856 252.582 397.954C252.728 395.907 265.307 331.112 271.742 309.319C278.178 287.526 285.052 281.09 299.24 272.607C313.574 264.124 329.809 258.858 329.809 258.858Z" fill="#009FA2"/>
<path fill-rule="evenodd" clip-rule="evenodd" d="M438.922 375.722L436.435 368.994C436.435 368.994 426.343 377.77 424.442 387.862C422.686 397.954 421.809 409.948 426.928 422.819C432.047 435.69 441.701 449.731 441.701 449.731C441.701 449.731 402.648 454.412 367.399 454.85C332.15 455.289 299.826 449.731 299.826 449.731C299.826 449.731 311.965 423.843 311.965 411.264C311.965 398.539 303.628 379.964 303.628 379.964C303.628 379.964 301.581 385.083 299.24 391.226C297.339 375.137 294.853 358.463 294.853 358.463L294.268 350.711C294.268 350.711 303.775 362.851 327.762 365.63C351.749 368.409 361.11 357.732 372.811 361.096C384.366 364.46 395.628 367.824 413.472 364.021C431.316 360.364 440.384 349.541 440.823 348.225C441.116 346.908 439.36 364.752 439.36 364.752C439.36 364.752 439.068 369.286 438.922 375.722ZM351.018 338.425C351.018 338.425 359.793 343.69 369.154 341.35C378.661 338.864 381.148 335.938 380.709 335.061C380.27 334.183 371.933 337.255 362.134 336.231C352.334 335.353 348.824 337.255 351.018 338.425ZM336.976 402.927C336.976 402.927 345.752 411.264 364.181 412.58C382.464 413.897 399.284 405.267 398.407 404.097C397.675 402.927 385.828 407.9 361.695 404.39C337.561 400.879 334.782 401.611 336.976 402.927ZM351.456 426.475C351.456 426.475 355.259 431.009 367.838 429.401C380.416 427.645 384.366 426.037 382.903 424.574C381.294 423.258 360.232 427.207 351.31 423.258C342.388 419.455 351.456 426.475 351.456 426.475Z" fill="#008183"/>
<path fill-rule="evenodd" clip-rule="evenodd" d="M329.813 258.858C329.813 258.858 326.01 267.049 323.67 275.24C314.602 278.75 303.193 283.284 297.343 287.233C286.665 294.254 283.594 303.907 281.546 310.928C279.499 317.949 271.308 398.686 264.287 407.608C257.267 416.53 253.317 419.309 241.031 417.115C228.599 415.067 185.159 408.485 172.288 406.292C164.975 405.121 158.247 402.781 153.712 401.026L154.297 392.104L162.196 393.274C162.196 393.274 231.232 397.369 240.008 398.393C248.637 399.563 252.44 399.856 252.586 397.955C252.732 395.907 265.311 331.112 271.747 309.319C278.182 287.526 285.057 281.09 299.244 272.607C313.578 264.124 329.813 258.858 329.813 258.858Z" fill="#59C1C2"/>
<path fill-rule="evenodd" clip-rule="evenodd" d="M414.783 274.947C414.637 269.682 413.613 265.879 413.175 264.416C412.151 261.052 410.396 256.957 410.396 256.957C410.396 256.957 439.794 263.685 450.033 273.192C460.125 282.699 468.316 307.71 470.071 317.656C471.826 327.602 487.769 393.128 487.769 393.128C487.769 393.128 526.528 390.788 548.321 390.349C569.968 389.91 585.326 385.961 586.057 386.546C586.35 386.838 586.789 391.958 586.935 397.662C586.204 397.808 585.619 398.101 584.887 398.247C576.55 400.587 559.584 403.366 539.692 406.584C519.8 409.655 512.341 414.482 494.204 415.945C476.068 417.407 471.972 398.832 469.339 379.964C466.707 361.096 457.2 315.316 456.03 310.489C454.859 305.662 447.546 288.55 438.039 282.407C433.505 279.481 423.705 276.849 414.783 274.947Z" fill="#59C1C2"/>
<path fill-rule="evenodd" clip-rule="evenodd" d="M337.124 115.521C336.539 115.813 335.223 116.106 334.199 116.106C331.712 116.106 326.008 118.885 322.79 121.518C320.158 123.711 316.209 131.171 314.307 137.606C313.722 139.8 312.844 142.287 312.552 143.018C311.528 145.358 306.409 167.152 304.946 175.05C303.484 183.241 301.582 198.306 300.558 209.275C300.12 213.956 300.997 223.317 302.46 229.898C303.337 234.14 306.116 239.405 308.603 242.038C313.137 246.572 322.937 250.083 333.175 250.814C336.539 250.96 339.172 251.399 339.172 251.692C339.172 252.13 337.709 253.008 329.957 256.079C328.495 256.665 326.739 257.542 326.154 257.835C325.423 258.127 324.546 258.42 324.107 258.42C323.375 258.42 322.498 258.858 315.916 261.784C314.161 262.515 312.406 263.246 312.259 263.246C311.821 263.246 305.239 266.172 299.973 268.804C293.099 272.168 285.64 277.873 281.252 283.577C274.377 292.206 271.891 297.764 266.772 316.632C266.479 318.241 265.894 320.143 265.602 321.167C265.309 322.044 264.285 326.432 263.261 330.674C262.237 334.915 261.214 339.742 260.775 341.205C259.897 345.154 257.996 354.368 256.826 360.658C255.948 364.753 254.047 376.893 253.315 382.451C252.877 385.668 250.975 396.492 250.683 397.077C250.683 397.077 247.904 396.638 244.686 396.199C241.322 395.761 230.498 394.883 220.26 394.591C189.545 393.42 173.748 392.397 161.462 390.788C159.415 390.641 157.367 390.495 156.928 390.641C156.636 390.788 155.465 390.788 154.295 390.788C152.686 390.934 152.101 390.641 151.663 389.033C150.931 387.424 151.224 386.4 153.418 382.158C156.343 376.454 156.489 375.284 154.442 370.896C151.955 365.63 142.448 357.001 140.4 358.171C140.108 358.317 139.23 358.025 138.645 357.147C136.159 354.514 127.822 355.831 121.971 359.634C118.9 361.681 115.828 365.338 115.828 366.947C115.828 367.532 115.536 368.263 115.097 368.409C114.804 368.702 114.366 371.042 114.366 373.675V378.502L110.855 375.284C108.954 373.675 105.736 370.018 103.835 367.386C95.2051 355.1 93.45 353.491 91.256 355.538C89.7934 356.855 89.5009 360.072 90.5247 362.851C93.5962 370.896 95.3514 373.821 100.032 379.525C102.811 382.889 105.297 384.791 106.321 384.06C107.199 383.621 106.321 382.012 102.226 376.893C100.324 374.406 98.4229 372.066 97.8379 371.481C96.5215 369.726 93.3037 362.559 93.3037 361.243C93.3037 359.487 94.9126 361.096 98.4229 366.508C102.518 372.651 110.416 380.988 113.927 382.889C117.145 384.645 117.876 383.767 117.876 377.917C118.022 370.311 120.216 365.192 124.604 362.851C127.676 361.096 132.941 359.195 133.38 359.634C133.965 360.072 130.747 362.559 129.577 362.705C129.138 362.705 128.699 362.851 128.699 363.144C128.699 363.437 128.114 364.022 127.237 364.314C125.189 365.192 122.703 368.995 122.118 371.92C121.24 376.6 122.41 380.257 125.774 383.475C128.407 386.254 128.992 386.546 131.917 386.546C136.159 386.546 140.254 383.475 140.254 380.403C140.254 377.917 138.499 376.161 137.475 377.77C137.183 378.209 136.89 379.233 136.89 379.964C136.89 382.158 133.38 383.475 130.747 382.451C127.676 381.134 126.652 379.233 126.652 374.845C126.652 371.773 127.09 370.75 128.261 369.287C129.869 367.678 137.621 362.413 137.914 362.851C137.914 362.998 138.353 364.314 138.938 365.923C140.108 369.726 141.717 369.726 141.717 366.069C141.717 364.607 142.009 363.29 142.302 363.29C143.179 363.29 148.884 369.726 150.054 372.066C151.516 374.845 151.516 378.063 149.907 380.257C146.397 385.23 146.69 391.665 150.639 393.713L152.54 394.737V402.489C152.54 406.584 152.394 411.118 152.101 412.288L151.809 414.336L149.176 413.312C147.86 412.581 146.105 411.85 145.373 411.557C144.642 411.264 140.985 410.972 137.183 410.826C123.434 410.241 116.121 408.047 107.93 402.05C104.712 399.71 103.542 398.54 99.1542 392.982C97.5453 390.934 96.0827 391.08 96.0827 393.128C96.0827 394.883 100.032 400.587 103.835 404.098C107.784 407.608 115.682 411.85 120.509 413.02C122.264 413.458 126.505 414.044 130.016 414.482C133.672 414.921 138.353 415.506 140.693 415.652C144.642 416.237 150.639 418.431 152.54 420.187C153.125 420.625 155.612 421.649 157.952 422.527C160.438 423.404 163.071 424.282 163.802 424.574C165.85 425.452 190.422 433.35 195.103 434.52C197.443 435.252 199.783 435.983 200.514 436.275C201.392 436.422 203.732 437.299 206.072 437.884C212.362 439.64 214.702 440.371 216.165 441.102C217.042 441.248 219.967 442.126 222.746 442.711C225.525 443.442 228.012 444.174 228.304 444.32C228.597 444.612 223.478 444.759 217.042 444.759C210.314 444.759 204.025 445.198 202.562 445.49C201.1 445.929 198.321 446.66 196.273 447.099C191.154 448.123 183.987 451.487 180.915 454.412C176.674 458.507 174.626 462.164 171.701 469.916C169.214 476.498 168.922 486.297 170.969 492.733C175.796 507.359 190.569 518.183 214.848 525.057C217.188 525.642 219.529 526.52 220.26 526.812C222.308 527.544 228.597 529.299 233.131 530.323C236.203 531.054 236.934 531.346 236.495 532.224C235.764 533.687 235.471 551.238 236.203 552.116C236.495 552.701 236.934 553.871 237.227 554.895C238.397 559.575 244.978 563.963 252.73 565.279C260.775 566.742 278.619 564.841 289.442 561.623C295.585 559.868 305.093 557.235 307.725 556.65C309.334 556.357 311.821 555.772 313.43 555.48C315.038 555.041 318.695 554.456 321.474 554.017C327.032 552.993 330.689 551.384 330.689 549.922C330.689 548.313 325.131 548.313 317.671 549.922C314.015 550.799 309.627 551.677 308.164 551.97C302.46 553.14 299.242 554.017 295.585 555.041C293.538 555.626 291.198 556.357 290.466 556.504C289.735 556.65 288.419 557.089 287.687 557.381C286.225 558.113 279.497 559.429 272.768 560.306C255.948 562.5 247.465 561.33 242.931 556.065C239.859 552.408 238.982 548.898 239.128 540.122L239.42 532.517L241.468 532.37C243.37 532.078 251.853 533.54 257.411 535.003C259.897 535.588 260.482 535.734 272.037 537.343C283.153 539.098 286.517 539.537 291.783 540.561C294.415 541 300.997 541.292 306.409 541.439C315.038 541.439 316.355 541.292 316.501 540.268C316.794 539.098 315.477 538.806 304.8 537.636C300.997 537.343 296.756 536.758 295.293 536.319C292.368 535.588 290.32 535.296 283.592 534.272C266.772 531.639 261.36 530.761 253.754 529.152C250.683 528.567 247.172 527.982 245.856 527.69C244.54 527.544 242.346 527.105 241.029 526.812C239.859 526.373 236.203 525.642 233.277 525.057C230.206 524.472 227.134 523.741 226.403 523.448C223.917 522.424 213.386 519.353 212.362 519.353C211.923 519.353 211.192 519.06 210.753 518.768C210.314 518.475 208.413 517.598 206.365 516.866C200.807 514.965 193.494 511.308 188.96 507.944C178.868 500.924 174.333 492.879 174.333 482.495C174.333 476.059 175.357 472.402 178.868 465.089C183.402 455.875 189.984 452.364 209.437 449.147C214.117 448.269 217.92 448.415 233.277 449.732C246.149 450.902 253.754 451.194 278.18 451.926C291.636 452.218 305.239 452.803 308.164 453.242C313.868 453.973 318.841 454.266 346.339 456.314C382.904 459.092 430.879 457.045 439.508 452.364C440.24 452.072 445.066 451.487 450.478 451.194C464.227 450.17 474.611 449.147 493.772 447.099C497.721 446.66 502.84 446.368 505.034 446.514L509.129 446.806L505.327 447.684C503.279 448.123 500.939 448.854 500.207 449.147C499.476 449.439 496.112 450.463 492.748 451.487C489.384 452.657 486.312 453.681 485.874 453.973C485.581 454.12 484.118 454.851 482.802 455.29C480.169 456.314 473.88 459.092 462.033 464.797C457.645 466.991 451.941 469.623 449.454 470.794C446.968 471.964 442.287 474.158 438.923 475.766C435.559 477.229 430.879 479.423 428.392 480.593C427.807 480.886 427.222 481.178 426.491 481.471C415.667 484.25 399.286 487.614 379.248 488.93C358.332 490.539 340.196 487.906 328.202 485.42L320.743 482.787C317.232 481.471 313.283 479.862 312.113 479.423C310.943 478.838 308.603 477.96 307.14 477.375C305.678 476.937 303.337 475.913 302.167 475.474C296.756 472.987 286.371 469.916 273.5 467.137C265.748 465.528 249.074 463.627 237.958 463.042C231.23 462.603 230.206 462.749 230.206 463.627C230.206 465.528 229.036 465.236 257.85 469.185C261.945 469.77 266.772 470.501 268.673 470.94C277.449 472.549 279.204 472.987 283.007 474.011C285.201 474.596 287.833 475.328 288.711 475.474C289.735 475.766 290.759 476.059 291.198 476.352C291.49 476.644 292.953 477.083 294.269 477.375C295.439 477.668 297.048 478.107 297.633 478.399C298.657 478.984 300.412 479.716 305.093 481.471C306.848 482.202 308.895 482.933 309.773 483.226C310.504 483.665 311.967 484.103 312.844 484.542C317.232 486.297 320.158 487.321 324.546 488.93C327.178 489.808 331.859 491.563 334.93 492.733C338.002 493.757 341.951 495.219 343.706 495.805C345.607 496.39 347.655 497.121 348.386 497.56C349.118 497.706 351.458 498.584 353.506 499.169C355.553 499.9 357.747 500.631 358.332 500.924C359.064 501.363 360.234 501.655 360.819 501.655C361.696 501.655 362.428 501.801 362.72 502.24C362.866 502.679 364.475 503.118 366.084 503.41C367.693 503.556 369.302 503.995 369.595 504.434C369.741 504.727 370.765 505.019 371.788 505.019C372.959 505.019 373.982 505.312 374.129 505.604C374.421 505.897 375.884 506.335 377.493 506.628C380.125 506.921 385.245 508.091 392.558 509.846C395.776 510.577 405.136 512.186 410.548 512.917C412.596 513.21 414.351 513.795 414.497 514.234C414.643 514.672 414.351 518.475 413.766 522.717C413.181 527.105 412.45 531.639 412.303 532.955C412.157 534.272 411.718 535.881 411.279 536.612C410.987 537.343 410.548 538.952 410.402 540.122C410.256 541.146 409.817 543.486 409.378 545.241C408.354 549.629 408.354 554.017 409.524 554.017C411.279 554.017 413.766 546.119 415.229 536.027C415.375 534.418 415.814 532.663 416.106 531.931C416.399 531.2 416.984 529.006 417.13 527.105C417.423 525.203 417.861 522.424 418.154 520.962L418.446 518.329L425.613 517.744C429.562 517.598 435.267 516.866 438.192 516.281C441.263 515.696 444.774 515.111 446.09 514.819C447.406 514.526 449.015 514.234 449.893 513.795C451.209 513.21 452.818 512.917 458.961 511.747C464.665 510.577 473.295 511.601 480.169 513.941C483.095 514.965 486.166 515.843 488.653 516.281C490.115 516.428 491.724 517.013 492.017 517.305C493.04 517.89 496.405 518.475 503.571 519.353C510.885 520.084 513.078 521.401 511.47 524.326C510.153 526.959 508.106 527.69 501.231 528.129C495.819 528.421 494.796 528.714 494.503 529.591C494.357 530.761 494.942 530.908 499.037 530.908C504.888 530.908 506.35 532.078 505.765 536.173C504.303 544.803 502.84 548.459 499.037 552.408C495.819 555.919 489.53 557.966 481.339 558.551C475.635 558.99 462.325 558.113 454.573 556.796C452.379 556.357 448.138 555.772 445.359 555.334C442.58 555.041 439.362 554.31 438.338 554.017C437.168 553.578 434.535 553.286 432.195 553.286C428.685 553.286 428.246 553.432 429.124 554.31C429.562 554.895 430.586 555.334 431.464 555.334C432.341 555.334 433.219 555.626 433.365 556.065C433.658 556.357 434.828 556.796 435.998 556.942C437.168 557.089 440.532 557.82 443.311 558.405C460.424 562.062 478.707 563.671 485.435 562.208C498.891 559.429 501.963 557.674 505.765 550.653C507.959 546.704 510.007 538.806 510.299 532.809C510.299 531.639 511.177 530.469 512.201 529.738C514.98 527.69 515.565 526.52 515.272 523.448C515.126 521.693 514.98 519.938 514.834 519.353C514.541 518.329 515.126 518.183 522.001 516.574C523.902 516.135 525.657 515.55 526.096 515.111C526.388 514.819 527.12 514.526 527.559 514.526C527.997 514.526 530.045 513.795 532.093 512.771C534.14 511.893 536.042 511.162 536.334 511.162C536.627 511.162 540.137 508.822 544.379 506.043C550.961 501.655 561.199 492.587 561.199 490.978C561.199 490.685 561.638 489.954 562.223 489.369C564.709 486.59 565.879 481.032 565.879 472.841C565.879 468.453 565.733 464.212 565.294 463.627C561.784 456.314 559.444 453.388 554.471 450.024C544.964 443.296 537.651 441.102 523.317 440.517C519.222 440.371 515.565 439.932 515.272 439.493C514.834 439.201 513.81 438.908 512.932 438.908C511.908 438.908 511.47 438.762 511.762 438.616C512.201 438.469 513.81 438.031 515.565 437.592C517.174 437.153 519.368 436.422 520.245 436.275C521.269 435.983 523.902 435.105 526.096 434.52C528.29 433.935 530.776 433.204 531.508 432.765C532.239 432.473 534.14 431.888 535.603 431.449C543.794 429.401 546.719 428.524 547.889 428.085C548.62 427.646 551.107 427.061 553.301 426.33C555.641 425.745 557.981 425.013 558.566 424.574C559.298 424.282 560.321 423.989 560.76 423.989C561.345 423.989 562.369 423.697 563.1 423.258C563.685 422.966 566.757 421.795 569.975 420.918C573.193 419.894 576.41 418.87 577.142 418.431C577.873 418.285 580.213 417.408 582.261 416.676C584.309 416.091 586.795 414.921 587.673 414.336C589.574 413.166 592.938 411.557 596.302 410.533C597.326 410.094 601.129 409.656 604.347 409.363C615.463 408.632 621.752 407.169 627.602 404.244C635.208 400.295 640.181 395.761 643.399 389.764C644.861 387.277 644.861 386.839 643.838 385.815C642.96 384.937 642.814 384.937 641.79 386.546C638.718 390.641 632.429 396.638 629.065 398.686C622.483 402.635 616.486 404.244 606.394 404.683C597.765 404.975 596.01 405.414 591.329 407.462C590.013 407.9 588.843 408.339 588.696 408.193C588.55 408.047 588.404 403.659 588.258 398.54L588.111 389.179L590.598 387.131C592.792 385.23 593.231 384.645 593.231 382.012C593.231 379.964 592.499 377.917 591.183 375.43C590.013 373.382 589.135 370.896 589.135 370.018C589.135 367.971 592.207 363.144 595.571 359.78L598.35 357.147L598.496 359.926C598.642 362.12 598.935 362.705 599.959 362.705C600.836 362.705 601.275 361.974 601.714 360.072C602.006 358.756 602.299 357.293 602.445 357.147C602.884 356.416 610.197 361.389 612.537 363.875C615.17 366.654 615.024 371.335 612.245 374.552C609.905 377.039 608.149 377.478 605.078 376.161C604.054 375.723 603.323 374.845 603.323 373.967C603.323 372.944 603.03 372.066 602.445 371.627C600.398 370.018 599.081 374.699 600.836 376.893C602.738 379.379 605.078 380.403 608.588 380.403C611.952 380.403 612.537 380.111 614.878 377.77C618.095 374.552 619.704 369.141 618.388 365.923C616.633 361.243 615.901 360.219 610.928 357.001L605.809 353.637L608.588 354.076C611.806 354.514 615.755 356.416 618.095 358.756C621.021 361.389 622.483 365.63 622.483 371.335C622.483 377.77 623.068 378.794 626.14 377.185C630.089 375.138 642.229 362.266 642.229 360.219C642.229 360.072 642.521 359.487 642.96 359.049C646.178 354.953 646.909 354.222 646.909 355.1C646.909 357.001 644.569 362.559 642.521 365.338C638.718 370.603 635.062 375.284 634.623 375.43C633.599 375.869 634.038 378.355 635.062 378.355C636.378 378.355 643.545 371.042 643.545 369.58C643.545 369.141 643.984 368.556 644.423 368.117C645.008 367.824 646.032 366.069 646.909 364.607C651.59 355.1 651.59 348.079 646.763 349.249C645.593 349.542 643.253 352.174 639.596 357.44C636.671 361.535 633.599 365.63 632.868 366.362C630.674 368.702 626.579 372.212 626.14 372.212C625.994 372.212 625.847 370.165 625.847 367.532C625.847 363.729 625.555 362.413 623.8 359.487C621.752 355.831 616.925 352.028 613.415 351.297C612.391 351.15 611.367 350.565 611.221 350.273C610.928 349.98 609.173 349.688 607.272 349.688C604.493 349.688 603.323 350.127 602.299 351.15C601.714 351.882 600.251 352.467 599.227 352.467C597.765 352.467 596.156 353.491 592.646 356.855C584.747 364.168 583.285 369.433 587.088 376.308C590.305 382.451 589.72 385.668 585.332 384.937C583.724 384.791 580.067 384.791 576.849 385.23C564.417 386.546 542.916 387.862 524.78 388.594C507.082 389.179 499.622 389.764 492.602 390.934L489.823 391.373L489.53 388.74C488.945 385.083 486.605 375.723 483.533 365.045C483.241 363.875 482.51 361.096 481.778 358.902C481.193 356.708 480.462 353.929 480.169 352.759C477.098 342.082 476.659 339.596 475.489 330.966C474.319 322.629 473.149 317.802 470.955 310.489C469.638 306.394 468.615 302.445 468.615 301.86C468.615 301.275 468.322 300.543 467.883 300.397C467.591 300.105 467.152 299.227 467.152 298.349C467.152 297.472 466.859 296.448 466.567 296.302C466.128 296.009 465.836 295.424 465.836 294.839C465.836 293.962 462.764 287.087 460.131 282.699C454.281 272.022 448.43 267.634 432.049 261.199C431.317 260.906 425.759 259.151 419.47 257.103C413.327 255.202 407.769 253.3 407.184 253.008C406.453 252.569 405.429 252.277 404.844 252.277C404.259 252.277 403.82 251.692 403.82 250.668C403.82 249.059 403.82 249.059 411.572 246.28C413.912 245.402 416.691 244.232 417.715 243.647C421.225 241.746 427.661 235.31 429.416 231.654C433.073 224.779 433.365 222.732 433.365 211.03C433.365 205.034 433.073 198.598 432.634 196.697C432.195 194.942 431.171 189.969 430.44 185.873C429.562 181.778 428.685 177.244 428.246 175.781C427.953 174.172 427.368 171.393 426.93 169.638C426.198 165.689 425.174 161.447 424.297 159.4C424.004 158.668 423.127 156.474 422.542 154.573C419.324 144.92 415.521 138.192 410.841 133.072C404.99 126.929 402.357 125.613 394.752 125.613C391.241 125.613 388.024 124.297 387.146 124.297C386.561 124.297 383.782 123.273 380.857 121.81C372.959 118.153 373.251 118.3 368.424 117.422C355.7 115.228 339.026 114.204 337.124 115.521ZM407.769 492.002C408.062 492.002 408.354 492.002 408.793 492.002C410.548 492.002 412.157 491.709 412.303 491.417C412.596 490.978 413.181 490.685 413.912 490.685C414.79 490.685 416.545 489.954 422.542 487.321C426.198 485.566 433.365 482.348 437.607 480.447C439.508 479.716 443.165 477.96 445.798 476.79C448.43 475.474 453.257 473.134 456.621 471.671C459.839 470.062 464.519 468.015 466.713 466.844C479.584 460.848 482.948 459.385 483.533 459.385C483.972 459.385 484.703 459.092 485.435 458.8C489.53 456.752 500.354 453.096 508.398 451.194C511.762 450.317 515.272 449.439 516.15 449.147C521.708 447.391 528.875 446.221 533.994 446.514C538.967 446.806 540.43 447.245 544.818 449.293C551.692 452.803 552.131 453.096 555.641 456.606C563.1 464.065 564.709 475.62 559.59 485.566C556.811 490.978 550.961 497.267 544.818 501.655C538.967 505.75 529.167 510.431 524.341 511.455C521.854 511.893 518.198 513.064 515.857 513.795C515.126 514.234 513.517 514.819 512.201 515.258C509.422 516.281 503.718 516.135 498.452 514.819C494.357 513.795 486.02 511.308 483.826 510.577C480.608 509.114 472.71 507.213 467.883 506.628C464.227 506.335 456.036 507.652 448.43 509.699C445.944 510.577 440.093 511.747 431.756 513.21C429.709 513.649 426.052 514.087 423.566 514.234L419.178 514.526L418.154 512.332C417.13 510.285 416.837 509.992 413.327 509.553L411.865 509.407C406.16 504.727 397.97 497.267 399.14 496.243C399.578 495.805 403.089 494.196 407.769 492.002ZM447.26 344.276C447.26 344.276 444.481 372.944 443.604 385.815C444.189 387.424 444.774 389.325 445.359 391.226C446.968 396.346 449.015 401.757 449.893 403.22C450.77 404.829 452.087 407.9 452.964 410.094C457.06 420.918 465.689 433.058 471.832 436.714C474.758 438.469 475.635 438.616 483.241 438.616C487.775 438.616 492.602 438.177 494.357 437.738C498.16 436.568 501.085 435.837 508.398 434.228C514.687 432.619 515.857 432.326 522.293 430.425C529.167 428.377 530.045 428.085 536.188 426.476C539.406 425.598 542.331 424.574 542.624 424.428C542.77 424.136 543.94 423.989 544.964 423.989C545.841 423.989 547.012 423.551 547.158 423.258C547.45 422.819 548.182 422.527 548.913 422.527C550.083 422.527 555.934 420.918 558.713 419.894C559.59 419.602 561.93 418.724 564.271 418.139C570.56 416.384 572.9 415.652 574.509 415.067C578.019 413.605 582.7 412.435 584.162 412.435C586.064 412.435 586.064 412.581 584.894 398.247L584.162 387.862L580.359 388.301C578.166 388.594 575.972 389.033 575.387 389.325C574.655 389.618 573.046 389.91 571.584 389.91C570.121 389.91 567.927 390.203 566.903 390.495C564.417 391.373 545.549 392.689 525.365 393.42C516.881 393.713 507.082 394.298 503.571 394.591C489.676 396.053 490.261 396.053 487.336 398.686C480.462 405.121 476.952 405.707 481.193 399.71C482.51 397.955 483.533 395.907 483.533 395.322C483.533 394.591 483.826 393.859 484.265 393.567C485.289 392.982 484.85 390.934 481.924 379.672C480.608 374.699 478.853 367.971 478.122 364.753C476.513 358.025 475.489 354.222 474.611 351.735C473.734 348.81 471.832 339.596 469.638 325.847C468.907 322.337 468.176 318.68 467.883 317.656C467.591 316.779 466.859 314.146 466.128 311.952C458.23 283.284 451.648 274.07 434.096 267.049C427.515 264.27 427.076 264.124 423.273 262.954C421.372 262.223 419.178 261.491 418.446 261.199C415.082 259.736 414.058 259.736 414.058 261.052C414.058 261.93 414.351 262.661 414.79 262.954C415.229 263.1 415.375 264.124 415.375 265.148C415.375 266.172 415.814 267.342 416.252 267.781C416.545 268.219 416.837 271.876 416.545 277.873C416.252 287.819 415.667 292.206 414.643 292.938C414.351 293.084 414.058 293.815 414.058 294.4C414.058 296.156 409.671 304.2 406.599 308.442C403.235 313.122 394.898 320.728 390.51 323.214C387.292 325.116 381.296 327.456 375.299 329.357C371.35 330.527 356.723 330.527 352.774 329.357C344.876 327.017 341.805 325.554 337.417 322.483C332.297 318.68 327.325 312.976 324.838 307.71C320.596 299.227 320.158 296.741 320.158 287.087C320.158 279.335 320.596 275.825 322.205 272.607C322.498 271.876 322.79 271.145 322.79 270.706C322.79 270.413 323.668 268.366 324.546 266.318C325.569 264.124 326.154 262.369 326.154 262.076C325.862 262.076 324.838 262.223 323.814 262.954C322.644 263.393 321.62 263.978 321.328 263.978C321.035 263.978 319.134 264.709 316.94 265.733C296.024 275.094 289.004 279.92 282.861 289.281C278.619 295.717 276.425 300.836 273.792 310.197C273.353 311.952 272.476 314.585 272.037 316.34C271.452 317.949 271.013 319.996 271.013 320.874C271.013 321.752 270.721 322.483 270.428 322.775C270.136 322.922 269.697 324.092 269.551 325.408C269.258 326.578 268.673 329.503 268.088 331.99C266.479 338.426 263.115 353.929 261.506 362.266C259.166 373.967 258.727 376.893 258.435 378.94C258.142 380.257 257.85 382.012 257.411 382.743C256.826 384.206 256.533 385.522 255.217 393.567C254.486 397.662 254.632 398.247 255.656 398.832C256.241 399.271 256.826 400.149 256.826 400.88C256.826 401.611 257.85 403.805 259.166 405.56C261.945 409.363 261.945 409.656 260.19 409.656C259.458 409.656 256.826 407.754 254.486 405.56C250.536 401.757 249.951 401.465 247.026 401.465C245.417 401.465 242.346 401.172 240.298 400.734C238.25 400.441 228.89 399.71 219.236 399.417C185.011 397.955 167.167 396.492 158.976 393.859C157.806 393.567 156.782 393.274 156.489 393.274C156.197 393.274 155.904 396.931 155.758 401.319C155.465 405.707 155.173 411.264 154.88 413.458C154.442 417.7 154.588 417.846 156.197 417.846C157.074 417.846 158.098 418.139 158.391 418.431C158.537 418.87 159.561 419.163 160.438 419.163C161.316 419.163 162.194 419.455 162.486 419.894C162.632 420.187 163.364 420.479 163.949 420.479C164.973 420.479 175.211 423.404 178.136 424.574C178.868 424.867 181.793 425.891 184.572 426.622C191.739 428.816 193.201 429.255 197.882 430.425C206.658 432.765 215.726 435.398 217.627 436.275C219.821 437.153 235.764 441.248 246.587 443.442C253.023 444.905 261.214 445.344 263.408 444.466C264.431 444.174 266.04 443.589 267.21 443.442C271.306 442.419 280.813 430.425 285.64 420.187C288.272 414.775 288.565 414.044 289.735 409.363C290.466 407.023 291.198 404.683 291.49 403.805C291.929 402.635 292.514 401.319 292.953 399.71L291.198 358.171C290.466 356.416 289.15 351.735 288.126 347.055C286.517 339.596 288.126 325.701 291.49 318.095C291.783 317.364 292.806 314.731 293.538 312.244C294.415 309.758 295.439 306.833 295.878 305.809C296.463 304.639 296.902 303.176 297.194 302.591C297.633 300.982 299.681 300.251 300.412 301.421C300.851 302.299 300.558 304.054 299.681 306.54C299.388 307.272 298.511 309.612 297.926 311.952C297.341 314.146 296.17 317.656 295.439 319.704C291.49 332.283 291.49 345.3 295.732 354.222C298.511 360.365 308.895 368.848 313.576 368.848C314.746 368.848 315.331 369.141 315.331 369.872C315.331 371.773 308.164 370.896 304.507 368.409C303.045 367.386 301.436 366.654 301.436 366.947C301.143 366.947 302.46 370.165 304.361 373.967C312.259 390.349 314.6 397.808 314.6 407.754C314.6 412.727 314.161 415.506 311.382 424.574C309.48 431.449 308.457 434.082 304.654 441.395C301.582 447.538 301.582 447.83 306.409 447.83C307.872 447.83 309.919 448.123 311.089 448.562C312.113 449 318.841 449.585 325.862 449.878C333.029 450.17 344.291 450.756 351.019 451.194C374.129 452.803 422.103 451.341 431.464 448.854C433.365 448.269 439.947 447.538 446.236 447.099C456.767 446.221 457.645 446.221 457.352 444.905C456.914 443.735 457.352 443.735 462.764 443.735C469.931 443.735 470.077 443.15 464.373 437.446C459.693 432.911 454.573 425.013 450.332 416.384C448.723 413.166 447.406 410.387 447.406 410.094C447.406 409.802 446.675 408.047 445.798 405.999C444.774 403.951 444.042 402.05 444.042 401.904C444.042 401.611 443.457 400.149 442.726 398.54C441.117 395.029 440.386 392.689 438.923 387.57C438.338 385.23 437.461 382.743 437.168 381.719C437.022 380.842 436.29 378.648 435.852 376.893C435.413 374.991 434.682 373.821 434.389 373.967C434.096 374.114 432.195 377.478 430.44 381.281C424.443 393.567 423.566 405.121 427.515 418.139C428.392 421.503 434.535 433.935 438.192 440.225C439.947 443.442 440.532 446.368 439.216 446.368C437.314 446.368 435.413 444.466 431.61 438.323C425.467 428.962 423.127 423.697 421.225 416.237C420.055 411.264 420.055 394.737 421.372 389.033C422.249 385.23 426.198 376.893 429.562 371.773C430.732 369.726 431.756 367.971 431.756 367.971C431.756 367.678 429.709 368.702 427.222 369.872C422.395 372.212 419.031 372.797 417.569 371.335C416.252 370.018 416.691 369.141 419.909 368.117C429.27 365.338 438.046 357.879 440.093 350.712C442.726 341.497 442.872 339.742 442.141 336.963C441.702 335.354 441.263 333.306 441.263 332.283C441.263 331.259 440.971 329.503 440.678 328.333C440.24 327.163 439.508 324.531 438.923 322.483C438.338 320.435 437.607 318.095 437.168 317.364C436.437 315.609 433.365 306.394 432.926 304.054C432.634 303.176 432.78 302.006 433.073 301.421C433.804 300.251 435.705 300.982 436.29 302.591C436.583 303.176 437.168 305.078 438.046 306.54C438.631 308.149 439.362 310.343 439.654 311.367C439.947 312.391 440.386 313.561 440.532 314C440.825 314.292 441.848 317.071 442.872 320.143C446.675 332.283 447.991 339.303 447.26 344.276ZM358.186 548.459C358.186 549.483 358.771 549.922 360.526 550.214C361.696 550.361 363.744 550.799 365.06 550.946C374.567 552.555 408.062 556.065 408.5 555.626C409.232 555.041 406.745 553.286 404.99 553.286C403.674 553.286 402.504 553.14 402.211 552.701C401.772 552.408 400.163 551.97 398.408 551.823C396.653 551.531 391.534 550.946 386.854 550.214C382.173 549.629 376.176 548.898 373.544 548.459C370.911 548.167 366.377 547.728 363.598 547.435C358.625 547.143 358.186 547.143 358.186 548.459ZM195.542 467.868C194.225 469.623 191.154 478.399 190.276 483.226C189.984 484.542 189.545 485.859 189.399 486.297C189.106 486.59 188.667 488.491 188.375 490.539C188.082 493.172 188.228 494.196 189.106 495.073C190.422 496.39 191.592 496.097 191.885 494.342C192.177 493.026 192.47 492.44 194.371 487.76C194.956 486.444 195.395 484.981 195.395 484.396C195.395 483.811 195.688 483.226 196.127 482.787C197.15 481.617 200.222 472.11 200.222 469.916C200.222 466.113 197.882 464.943 195.542 467.868ZM537.504 458.8C536.627 459.678 537.212 461.433 539.406 463.773C541.015 465.674 544.086 471.671 546.426 477.375C548.767 482.787 549.352 483.811 550.668 483.811C553.886 483.811 547.304 465.236 542.331 460.263C539.845 457.922 538.821 457.484 537.504 458.8ZM86.5756 373.529C86.5756 375.869 89.2084 380.988 91.9874 384.06C96.9603 389.471 108.223 396.492 110.855 395.907C112.464 395.614 112.757 393.274 111.294 393.274C109.831 393.274 100.471 386.985 96.814 383.475C93.0112 379.964 89.9397 375.43 89.9397 373.675C89.9397 372.505 89.5009 372.212 88.1845 372.212C87.0144 372.212 86.5756 372.505 86.5756 373.529ZM650.712 367.239C649.249 371.335 648.226 372.944 644.569 376.746C639.888 381.134 633.599 385.668 630.235 386.839C627.456 387.862 627.164 389.91 629.943 389.91C633.453 389.91 644.715 382.889 648.957 377.917C651.736 374.845 653.93 370.018 653.637 367.971C653.345 366.069 651.151 365.484 650.712 367.239ZM372.52 215.857C369.595 218.929 366.084 219.221 363.598 216.588C362.135 215.126 358.917 214.248 358.917 215.272C358.917 216.442 361.989 219.806 363.744 220.684C366.523 222.146 370.618 222 372.666 220.391C374.421 219.075 376.615 215.418 376.615 214.102C376.615 212.786 374.714 213.663 372.52 215.857ZM361.989 195.527C361.696 202.693 361.696 205.619 362.281 206.35C364.036 208.544 372.52 208.544 372.52 206.35C372.52 205.765 372.081 205.326 371.496 205.326C370.911 205.326 369.302 204.887 367.693 204.595L365.06 203.717V194.649C365.06 186.312 364.914 185.581 363.744 185.581C362.574 185.581 362.428 186.458 361.989 195.527ZM387 180.9C386.561 181.632 385.098 182.802 383.782 183.241C381.588 184.411 381.588 184.264 378.809 182.509C374.567 179.73 372.666 182.217 376.469 185.873C378.955 188.213 383.928 188.36 386.854 186.312C388.901 184.849 391.095 181.047 390.51 180.023C389.925 178.999 387.877 179.438 387 180.9ZM341.658 179.876C339.318 182.217 345.022 188.945 349.41 188.945C352.921 188.945 357.601 185.434 357.601 182.802C357.601 181.193 357.016 181.193 354.237 182.802C350.727 184.996 347.801 184.703 345.607 181.924C343.852 179.584 342.682 178.999 341.658 179.876ZM377.931 158.23C377.931 159.692 386.561 167.444 391.826 170.954C395.044 173.002 397.97 175.05 398.262 175.635C398.408 176.074 398.847 179.438 399.14 183.094C399.432 188.506 399.578 189.969 400.602 190.7C401.772 191.431 402.504 190.992 402.796 189.53C403.381 186.458 405.575 183.533 407.184 183.533C410.841 183.533 411.865 189.676 408.793 194.064C407.915 195.673 406.892 196.989 406.599 197.135C406.453 197.428 405.136 198.891 403.674 200.646C402.065 202.693 400.456 204.01 399.725 204.01C398.701 204.01 397.823 205.034 396.507 207.813C391.534 219.221 390.071 221.854 388.024 223.902C385.098 226.973 379.102 231.215 377.785 231.215C377.346 231.215 376.469 231.654 376.03 232.092C374.86 233.262 362.574 232.97 359.064 231.8C353.506 229.898 344.145 222.732 342.536 219.367C342.097 218.49 341.073 216.735 340.196 215.272C339.172 213.663 338.294 212.054 338.002 211.469C336.1 206.643 334.199 203.279 332.882 202.547C330.25 201.085 324.838 195.673 322.498 192.016C320.158 188.36 319.134 184.411 320.011 182.948C320.743 181.778 323.668 182.363 326.301 184.264C327.325 184.996 328.495 185.581 328.787 185.581C329.372 185.581 329.811 187.043 330.835 192.163C331.127 194.21 333.029 196.697 333.029 195.38C333.029 195.088 333.175 191.139 333.175 186.605L333.321 178.414L337.563 177.975C341.366 177.683 342.682 177.244 347.655 175.342C356.138 172.125 372.374 162.617 375.591 159.107C376.908 157.644 377.931 157.206 377.931 158.23ZM354.822 234.871C359.649 236.919 361.989 237.358 367.986 237.358C373.69 237.358 378.809 236.48 380.418 235.164C381.588 234.14 382.612 234.725 383.051 236.773C384.367 242.77 388.609 248.474 393.582 250.668C394.898 251.253 397.823 252.715 399.871 253.739C402.065 254.909 404.259 255.787 404.698 255.787C408.062 255.787 413.327 269.243 413.327 277.726C413.327 281.09 412.303 287.672 410.841 292.206C407.184 303.907 397.823 314.438 385.098 321.167C376.761 325.408 362.866 327.895 356.577 325.993C355.407 325.554 352.774 324.823 350.727 324.238C348.679 323.653 345.169 322.044 342.975 320.581C338.44 317.949 330.981 311.074 330.981 309.758C330.981 309.319 330.689 308.88 330.396 308.88C330.104 308.88 329.08 306.979 328.056 304.639C326.886 302.299 325.862 299.812 325.569 299.373C325.277 298.788 324.692 295.717 324.107 292.645C323.375 288.111 323.375 286.063 324.107 281.383C324.546 278.311 325.131 275.24 325.569 274.509C325.862 273.777 326.886 270.998 327.91 268.366C329.08 265.733 330.104 263.246 330.396 262.954C330.689 262.515 330.981 261.784 330.981 261.052C330.981 259.882 336.1 257.103 338.148 257.103C344.291 254.032 346.485 249.498 347.216 248.474C349.264 245.549 350.727 240.868 350.727 237.358C350.727 234.286 351.165 233.116 352.043 233.555C352.189 233.701 353.506 234.286 354.822 234.871ZM307.286 394.152C309.188 401.904 309.48 412.581 307.725 418.87C306.555 423.404 303.776 431.303 300.997 438.616C299.535 442.272 298.218 445.929 298.072 446.514C297.633 447.684 296.463 447.83 285.932 447.684C279.497 447.684 273.5 447.391 272.768 447.099C272.037 446.806 271.745 446.514 272.183 446.514C273.5 446.368 279.643 439.932 282.714 435.398C286.956 429.109 291.636 419.455 293.83 412.727C294.854 409.363 296.024 405.999 296.317 405.268C296.463 404.536 297.341 402.05 297.926 399.71C298.657 397.516 299.388 395.029 299.681 394.298C299.973 393.567 300.558 391.812 300.997 390.203C303.191 383.621 303.045 383.767 304.8 387.716C305.678 389.764 306.848 392.689 307.286 394.152ZM512.64 445.49C512.347 445.636 511.762 445.783 511.323 445.49C510.738 445.344 511.031 445.198 511.762 445.198C512.493 445.051 512.932 445.198 512.64 445.49Z" fill="black"/>
<path fill-rule="evenodd" clip-rule="evenodd" d="M367.835 130.147C372.954 131.171 374.563 132.048 374.563 133.657C374.563 134.388 373.978 134.388 372.076 134.096C370.614 133.803 369.151 133.364 368.712 133.072C367.689 132.194 342.97 132.048 341.8 132.926C340.191 133.803 335.072 135.12 334.779 134.535C334.048 133.364 337.997 131.463 343.555 130.147C349.113 128.83 361.692 128.83 367.835 130.147ZM395.625 136.582C396.21 136.875 397.965 137.606 399.574 138.337C401.475 139.069 402.499 139.946 402.499 140.824C402.499 141.409 402.06 141.994 401.475 141.994C400.89 141.994 400.451 141.848 400.451 141.409C400.451 140.678 395.479 139.361 390.213 138.922C385.386 138.337 383.485 137.167 385.533 135.851C386.556 135.12 393.87 135.705 395.625 136.582ZM361.692 147.845C361.692 148.576 360.814 148.868 357.596 148.868C355.402 148.868 353.355 149.161 353.062 149.453C352.916 149.892 351.746 150.185 350.43 150.185C349.113 150.185 347.943 150.477 347.797 150.77C347.504 151.209 346.188 151.647 344.872 151.94C342.678 152.232 340.045 153.403 339.167 154.28C337.997 155.304 335.803 156.182 335.072 155.596C334.048 155.011 337.12 152.379 339.606 151.794C340.484 151.501 341.215 151.209 341.215 150.77C341.215 150.477 341.8 150.185 342.531 150.185C343.263 150.185 343.994 149.892 343.994 149.453C343.994 149.161 344.579 148.868 345.457 148.868C346.334 148.868 347.358 148.576 347.797 148.137C348.528 147.406 351.307 146.967 357.011 146.821C360.668 146.821 361.692 146.967 361.692 147.845ZM390.506 149.015C394.162 151.355 400.451 157.937 400.451 159.107C400.451 161.008 399.574 160.716 397.38 158.229C395.04 155.889 387.288 150.185 386.264 150.185C385.24 150.185 384.655 149.015 385.094 148.137C385.825 147.113 388.165 147.406 390.506 149.015Z" fill="white"/>
<path fill-rule="evenodd" clip-rule="evenodd" d="M74.7193 441.102C76.4745 442.711 75.5969 443.589 72.0866 444.028C68.5763 444.32 66.6748 444.613 55.1201 446.514C52.3411 446.953 48.977 447.392 47.6607 447.392C45.613 447.392 45.3204 447.245 45.3204 445.783C45.3204 443.589 47.6607 442.419 53.2186 441.688C55.5589 441.249 57.6065 440.956 57.7528 440.664C58.4841 439.932 73.988 440.225 74.7193 441.102ZM33.6194 396.346C34.9358 398.394 36.2521 400.734 36.5447 401.758C36.6909 402.782 37.1297 403.659 37.5685 403.952C38.4461 404.537 38.1536 406.292 37.1297 406.292C35.6671 406.292 27.1838 396.492 27.1838 394.591C27.1838 393.274 29.0853 391.958 30.4016 392.397C30.8404 392.543 32.303 394.445 33.6194 396.346Z" fill="white"/>
<path fill-rule="evenodd" clip-rule="evenodd" d="M670.462 429.84C672.071 430.425 671.632 431.742 669.292 433.936C663.587 439.055 654.958 448.854 653.642 451.633C652.764 453.389 650.424 453.827 650.424 452.218C650.424 451.195 650.57 450.756 652.764 446.368C655.104 441.834 663.441 431.888 666.366 430.279C667.975 429.401 668.853 429.255 670.462 429.84ZM700.446 421.211C701.177 422.381 699.422 424.721 695.18 429.255C689.33 435.106 687.136 434.667 690.939 428.524C694.595 422.527 699.129 419.163 700.446 421.211Z" fill="white"/>
<path fill-rule="evenodd" clip-rule="evenodd" d="M256.682 224.634C256.389 219.953 254.195 204.742 240.447 195.527C224.212 184.558 201.98 193.918 201.98 193.918C201.98 193.918 199.786 176.806 177.992 169.931C156.199 163.203 146.546 185.874 146.546 185.874C146.546 185.874 138.648 180.755 129.433 182.364C120.072 183.973 116.562 194.65 116.562 194.65C116.562 194.65 103.545 191.871 92.1361 199.038C82.3365 205.181 77.8023 220.246 76.6322 224.634H256.682Z" fill="white"/>
</svg>
