<svg xmlns="http://www.w3.org/2000/svg" viewBox="0 0 360 360"><defs><style>.cls-1{fill:#fff}</style></defs><g id="Layer_2" data-name="Layer 2"><g id="Layer_1-2" data-name="Layer 1"><polygon points="180.51 179.52 180.52 179.52 180.5 179.5 180.51 179.52" class="cls-1"/><polygon points="180.5 179.5 180.51 179.52 180.52 179.52 180.5 179.5 180.5 179.5"/><polygon points="180.52 179.52 180.63 179.52 180.69 179.37 180.52 179.44 180.5 179.5 180.52 179.52" class="cls-1"/><polygon points="180.69 179.37 180.52 179.44 180.5 179.5 180.52 179.52 180.63 179.52 180.69 179.37 180.69 179.37"/><polygon points="180.34 179.52 180.26 179.55 180.34 179.52 180.19 179.52 180.17 179.54 180.34 179.71 180.5 179.64 180.5 179.52 180.34 179.52" class="cls-1"/><polygon points="180.5 179.52 180.34 179.52 180.26 179.55 180.34 179.52 180.19 179.52 180.17 179.54 180.34 179.71 180.5 179.64 180.5 179.52 180.5 179.52"/><polygon points="180.5 179.52 180.5 179.64 180.55 179.62 180.51 179.52 180.5 179.52" class="cls-1"/><polygon points="180.51 179.52 180.5 179.52 180.5 179.64 180.55 179.62 180.51 179.52 180.51 179.52"/><polygon points="180.55 179.62 180.6 179.6 180.52 179.52 180.51 179.52 180.55 179.62" class="cls-1"/><polygon points="180.52 179.52 180.51 179.52 180.55 179.62 180.6 179.6 180.52 179.52 180.52 179.52"/><polygon points="180.54 179.82 180.55 179.81 180.56 179.85 180.54 179.82" class="cls-1"/><polygon points="180.4 179.26 180.16 179.5 180.21 179.5 180.28 179.43 180.21 179.5 180.38 179.5 180.48 179.46 180.4 179.26 180.4 179.26"/><polygon points="180.15 179.52 180.19 179.52 180.21 179.5 180.16 179.5 180.14 179.51 180.15 179.52" class="cls-1"/><polygon points="180.21 179.5 180.16 179.5 180.14 179.51 180.15 179.52 180.19 179.52 180.21 179.5 180.21 179.5"/><polygon points="180.52 179.44 180.74 178.91 180.5 179.16 180.5 179.45 180.52 179.44" class="cls-1"/><polygon points="180.74 178.91 180.5 179.16 180.5 179.45 180.52 179.44 180.74 178.91 180.74 178.91"/><polygon points="180.5 179.45 180.5 179.16 180.4 179.26 180.48 179.46 180.5 179.45" class="cls-1"/><polygon points="180.5 179.16 180.4 179.26 180.48 179.46 180.5 179.45 180.5 179.16 180.5 179.16"/><polygon points="180.5 179.5 180.52 179.44 180.5 179.45 180.5 179.5" class="cls-1"/><polygon points="180.52 179.44 180.5 179.45 180.5 179.5 180.52 179.44 180.52 179.44"/><polygon points="180.14 179.52 180.15 179.52 180.14 179.51 180.14 179.52" class="cls-1"/><rect x="180.14" y="179.51" transform="translate(-74.17 179.96) rotate(-45)"/><polygon points="179.76 179.95 180.09 179.81 179.95 179.76 179.76 179.95" class="cls-1"/><polygon points="179.95 179.76 179.76 179.95 180.09 179.81 179.95 179.76 179.95 179.76"/><polygon points="180.16 179.5 180.13 179.5 180.14 179.51 180.16 179.5" class="cls-1"/><polygon points="180.16 179.5 180.13 179.5 180.14 179.51 180.16 179.5 180.16 179.5"/><polygon points="180.15 179.52 180.17 179.54 180.19 179.52 180.15 179.52" class="cls-1"/><polygon points="180.19 179.52 180.15 179.52 180.17 179.54 180.19 179.52 180.19 179.52"/><polygon points="180.5 179.98 180.5 179.84 180.45 179.96 180.5 179.98" class="cls-1"/><polygon points="180.5 179.84 180.45 179.96 180.5 179.98 180.5 179.84 180.5 179.84"/><polygon points="180.48 179.46 180.38 179.5 180.5 179.5 180.48 179.46" class="cls-1"/><polygon points="180.48 179.46 180.38 179.5 180.5 179.5 180.48 179.46 180.48 179.46"/><polygon points="180.5 179.52 180.5 179.5 180.38 179.5 180.34 179.52 180.5 179.52" class="cls-1"/><polygon points="180.5 179.5 180.38 179.5 180.34 179.52 180.5 179.52 180.5 179.5 180.5 179.5"/><polygon points="180.5 179.45 180.48 179.46 180.5 179.5 180.5 179.45" class="cls-1"/><polygon points="180.5 179.45 180.48 179.46 180.5 179.5 180.5 179.45 180.5 179.45"/><polygon points="180.51 179.52 180.5 179.5 180.5 179.52 180.51 179.52" class="cls-1"/><rect height=".02" x="180.5" y="179.5"/><polygon points="180.38 179.5 180.21 179.5 180.19 179.52 180.34 179.52 180.38 179.5" class="cls-1"/><polygon points="180.38 179.5 180.21 179.5 180.19 179.52 180.34 179.52 180.38 179.5 180.38 179.5"/><path d="M.51,179A178.3,178.3,0,0,1,53,53.12L178.92,179Z" class="cls-1"/><path d="M53,53.83,176.43,177.21,15.05,110.37c.07-.15.13-.31.2-.46A178.23,178.23,0,0,1,53,53.83M14.28,112.22l160,66.28H1a177.92,177.92,0,0,1,13.27-66.28M53,52.41A179.4,179.4,0,0,0,0,179.5H179.33L13.87,111,179.33,179.5h.8L53,52.41Z"/><path d="M53.75,52.41a178.8,178.8,0,0,1,57.69-38.34L179.34,178Z" class="cls-1"/><path d="M111.17,14.73l66.75,161.14L54.46,52.41a178.23,178.23,0,0,1,56.71-37.68m.54-1.31A180.36,180.36,0,0,0,53,52.41L180.13,179.5h0l.24-.24L111.71,13.42Z"/><path d="M307.1,53.26a178.64,178.64,0,0,1,38.46,57.28l-163.44,67.7Z" class="cls-1"/><path d="M307.1,54a178.26,178.26,0,0,1,37.8,56.3L184.26,176.81,307.1,54m0-1.42L180.74,178.91l-.22.53.17-.07.05-.11-.05.11,165.52-68.56A180.16,180.16,0,0,0,307.1,52.55Z"/><path d="M181,.51A178.47,178.47,0,0,1,248.49,14L181,177Z" class="cls-1"/><path d="M181.5,1a177.94,177.94,0,0,1,66.34,13.3L181.5,174.47V1m-1-1V179.16l.24-.25L249.15,13.77A179.26,179.26,0,0,0,180.5,0Z"/><path d="M180,359.5C81,359.5.5,279,.5,180H179l-1.35,1.36,2.35-1Z" class="cls-1"/><path d="M175.81,180.5l-161.66,67A177.67,177.67,0,0,1,1,180.5H175.81m-.31,2.29L52.58,305.72a178.3,178.3,0,0,1-37.51-56.05l-.16-.36L175.5,182.79m2.6.23L110.93,345.19l-.6-.26A178.1,178.1,0,0,1,54,307.13L178.1,183m1.4,1.85V359A177.75,177.75,0,0,1,112.78,346L179.5,184.87m-.17-5.37H0c0,.17,0,.33,0,.5A180,180,0,0,0,180,360h.5V180l-.05,0L111.66,346,180.45,180l-.36-.15-.33.14L52.64,307.06,179.76,180,14.08,248.58,179.76,180l.19-.19,0,0-.08.09.08-.09-.58-.24Z"/><path d="M249.42,14.43a178.84,178.84,0,0,1,57,38.12L182.17,176.78Z" class="cls-1"/><path d="M249.69,15.08a178.42,178.42,0,0,1,56,37.47l-122.1,122.1,66.1-159.57m-.54-1.31L180.74,178.91,307.1,52.55a180.22,180.22,0,0,0-58-38.78Z"/><path d="M112.36,13.69A178.59,178.59,0,0,1,180,.5V177Z" class="cls-1"/><path d="M179.5,1V174.47L113,14A177.78,177.78,0,0,1,179.5,1m.5-1a179.49,179.49,0,0,0-68.29,13.42L180.4,179.26l.1-.1V0Z"/><polygon points="179.94 179.52 180.14 179.52 180.14 179.51 180.13 179.5 179.33 179.5 179.91 179.74 180.14 179.52 179.94 179.52" class="cls-1"/><polygon points="180.13 179.5 179.33 179.5 179.91 179.74 180.14 179.52 179.94 179.52 180.14 179.52 180.14 179.51 180.13 179.5 180.13 179.5"/><path d="M181,182l67.85,163.81A178.58,178.58,0,0,1,181,359.49Z" class="cls-1"/><path d="M181.5,184.53l66.7,161A177.84,177.84,0,0,1,181.5,359V184.53m-.93-4.86-.07.17V180l.13.06-.13-.06V360a179.25,179.25,0,0,0,69-13.91L180.57,179.67Z"/><path d="M182.21,180H359.5a178.29,178.29,0,0,1-13.32,67.92Z" class="cls-1"/><path d="M359,180.52a178,178,0,0,1-13.09,66.76L184.72,180.52H359m1-1H180.8l-.2.08h0l.5.5,165.36,68.49A179.45,179.45,0,0,0,360,180c0-.16,0-.32,0-.48Z"/><path d="M181.92,181.63,307.07,306.77a178.82,178.82,0,0,1-57.3,38.66Z" class="cls-1"/><path d="M183.35,183.76l123,123a178.32,178.32,0,0,1-56.32,38l-66.69-161m-2.75-4.16,0,.07L249.5,346.08a180.11,180.11,0,0,0,58.27-39.31L181.1,180.1l-.29-.12.29.12-.5-.5Z"/><path d="M183.23,181.52,345.8,248.86a178.7,178.7,0,0,1-38,57.2Z" class="cls-1"/><path d="M185.36,183l159.79,66.18a178.26,178.26,0,0,1-37.38,56.22L185.36,183m-4.26-2.85L307.77,306.77a180.21,180.21,0,0,0,38.69-58.18L181.1,180.1Z"/><polygon points="180.34 179.71 180.46 179.83 180.34 179.71 180.09 179.81 180.45 179.96 180.5 179.84 180.5 179.64 180.34 179.71" class="cls-1"/><polygon points="180.5 179.64 180.34 179.71 180.46 179.83 180.34 179.71 180.09 179.81 180.45 179.96 180.5 179.84 180.5 179.64 180.5 179.64"/><polygon points="180.5 179.64 180.5 179.84 180.57 179.67 180.55 179.62 180.5 179.64" class="cls-1"/><polygon points="180.55 179.62 180.5 179.64 180.5 179.84 180.57 179.67 180.55 179.62 180.55 179.62"/><polygon points="180.17 179.54 179.95 179.76 180.09 179.81 180.34 179.71 180.17 179.54" class="cls-1"/><polygon points="180.17 179.54 179.95 179.76 180.09 179.81 180.34 179.71 180.17 179.54 180.17 179.54"/><polygon points="180.15 179.52 180.14 179.52 179.91 179.74 179.95 179.76 180.17 179.54 180.15 179.52" class="cls-1"/><polygon points="180.15 179.52 180.14 179.52 179.91 179.74 179.95 179.76 180.17 179.54 180.15 179.52 180.15 179.52"/><polygon points="180.6 179.6 180.6 179.6 180.6 179.6 180.6 179.6" class="cls-1"/><rect x="180.6" y="179.6"/><polygon points="180.52 179.52 180.6 179.6 180.6 179.6 180.63 179.52 180.52 179.52" class="cls-1"/><polygon points="180.63 179.52 180.52 179.52 180.6 179.6 180.6 179.6 180.63 179.52 180.63 179.52"/><polygon points="180.55 179.62 180.57 179.67 180.6 179.6 180.6 179.6 180.55 179.62" class="cls-1"/><polygon points="180.6 179.6 180.55 179.62 180.57 179.67 180.6 179.6 180.6 179.6 180.6 179.6"/><polygon points="180.6 179.6 180.8 179.52 180.63 179.52 180.6 179.6" class="cls-1"/><polygon points="180.8 179.52 180.63 179.52 180.6 179.6 180.8 179.52 180.8 179.52"/><path d="M180.93,179.82h0l0,.17Zm1.93-.8,163.08-67.56A178.3,178.3,0,0,1,359.49,179Z" class="cls-1"/><path d="M345.67,112.12A177.83,177.83,0,0,1,359,178.52H185.37l160.3-66.4m.54-1.31L180.69,179.37l-.06.15h.17l0,0,0,0H360a179.35,179.35,0,0,0-13.78-68.71Z"/></g></g></svg>